<svg xmlns="http://www.w3.org/2000/svg" viewBox="0 0 612.5 107.02"><title>firstPageTXT</title><g id="Layer_2" data-name="Layer 2"><g id="Layer_1-2" data-name="Layer 1"><path d="M175.05,107c-3.61-2.71-7-4.12-8.61-6.66Q153.06,78.94,140.6,57a10.4,10.4,0,0,1,.12-8.71Q152.64,27.11,165.51,6.5c5.38-8.6,13.69-8.46,19.12.2,8.42,13.45,16.72,27,24.45,40.83,1.53,2.73,1.6,7.74.08,10.44-8.09,14.38-16.75,28.46-25.59,42.41C182,102.9,178.61,104.33,175.05,107ZM175,91.81c7.26-13.21,13.35-24.17,19.27-35.23.84-1.58,1.69-4.1,1-5.4C189,39.12,182.41,27.23,175.07,13.77c-7.18,13.07-13.37,24-19.16,35.14-1,2-1.35,5.24-.4,7.09C161.4,67.43,167.75,78.62,175,91.81Z" fill="#e8bf74"/><path d="M497.13.69h56.25V104.34H541.84v-92H509.12v92l-12,.65Z" fill="#e8bf74"/><path d="M284.19,104.38H272.3v-30H256.87v29.79H244.53c0-16.07-.22-32.18.11-48.28.12-5.68-.93-9.12-6.7-12-10-5-13.67-15.83-10.81-26.67,2.5-9.43,13.17-17,23.81-16.8,10.82.16,19.89,6.65,22.95,16.42,3.38,10.8-.3,20.81-9.92,27-8.18,5.24-8.18,5.24-6.52,18.12h26.74ZM237.91,25c.82,7,5.36,11,12.68,11.55,6.62.48,13.82-6.58,13-12.89-.91-7.2-5.36-11.69-12.86-12.09C243.71,11.2,237.67,17.5,237.91,25Z" fill="#e8bf74"/><path d="M71,1.28H82.92c.36,6.45.68,12.44,1,18.88l13.51,1.53V45.87l18.83,1v57.51h-12V57.72H78.22v46.72L66.93,105V46.85l16.72-.79V33L71,31.57Z" fill="#e8bf74"/><path d="M415,46.85l17.18-.79c.19-4.15.38-8.13.6-12.79L419.4,31.53V1.67h11.94c.28,6.32.54,12.07.83,18.54l13.39,1.38V45.73L464.84,47c.19,2.65.47,4.85.48,7,0,16.5,0,33,0,50.18H452.46V58.71c-1.81-.79-2.66-1.43-3.55-1.5-22.35-1.76-22.35-1.75-22.35,20.28v26.76H415Z" fill="#e8bf74"/><path d="M0,12.56v-11a50.8,50.8,0,0,1,52.44,51A51.46,51.46,0,0,1,.11,104.2V93c28.63-7.9,39.74-20,39.06-42.38C38.57,30.76,25.3,17.7,0,12.56Z" fill="#e8bf74"/><path d="M348.43.56,360,0c0,12.67.35,24.86-.14,37-.28,7.08,1.79,10.1,9.28,9.53,7.34-.55,14.75-.12,22.69-.12v57.76H380V57H348.43Z" fill="#e8bf74"/><path d="M600.6,20.54c-6.18,4.5-10.44,6.92-13.84,10.21-6.55,6.36-10.46,4.07-14.09-4,10.86-8.13,21.57-16.4,32.57-24.27,4.48-3.2,7.26-1.65,7.26,4.1,0,32.33,0,64.66,0,97.67H600.6Z" fill="#e8bf74"/></g></g></svg>